<svg xmlns="http://www.w3.org/2000/svg" xmlns:xlink="http://www.w3.org/1999/xlink" width="336" zoomAndPan="magnify" viewBox="0 0 252 143.999998" height="192" preserveAspectRatio="xMidYMid meet" version="1.0"><defs><filter x="0%" y="0%" width="100%" height="100%" id="d6f9de67fa"><feColorMatrix values="0 0 0 0 1 0 0 0 0 1 0 0 0 0 1 0 0 0 1 0" color-interpolation-filters="sRGB"/></filter><g/><mask id="655903f4ab"><g filter="url(#d6f9de67fa)"><rect x="-25.2" width="302.4" fill="#000000" y="-14.4" height="172.799997" fill-opacity="0.6"/></g></mask><clipPath id="fd58647132"><rect x="0" width="199" y="0" height="140"/></clipPath></defs><g mask="url(#655903f4ab)"><g transform="matrix(1, 0, 0, 1, 26, -0.000000000000008916)"><g clip-path="url(#fd58647132)"><g fill="#ff66c4" fill-opacity="1"><g transform="translate(0.445337, 111.959093)"><g><path d="M 5.765625 -77.765625 L 17.859375 -77.765625 L 33.796875 -40.3125 L 33.796875 -77.765625 L 48 -77.765625 L 48 0 L 36.390625 0 L 20.453125 -40.3125 L 20.453125 0 L 5.765625 0 Z M 5.765625 -77.765625 "/></g></g></g><g fill="#ff66c4" fill-opacity="1"><g transform="translate(47.197179, 111.959093)"><g><path d="M 16.703125 -77.765625 L 36.28125 -77.765625 L 50.78125 0 L 34.9375 0 L 32.359375 -16.421875 L 20.921875 -16.421875 L 18.234375 0 L 2.015625 0 Z M 30.71875 -26.6875 L 26.59375 -57.03125 L 22.46875 -26.6875 Z M 30.71875 -26.6875 "/></g></g></g><g fill="#ff66c4" fill-opacity="1"><g transform="translate(92.989022, 111.959093)"><g><path d="M 5.859375 -77.765625 L 23.046875 -77.765625 L 23.046875 0 L 5.859375 0 Z M 5.859375 -77.765625 "/></g></g></g><g fill="#ff66c4" fill-opacity="1"><g transform="translate(114.780849, 111.959093)"><g><path d="M 5.765625 -77.765625 L 22.9375 -77.765625 L 22.9375 -11.609375 L 40.796875 -11.609375 L 40.796875 0 L 5.765625 0 Z M 5.765625 -77.765625 "/></g></g></g><g fill="#ff66c4" fill-opacity="1"><g transform="translate(150.204683, 111.959093)"><g><path d="M 26.40625 1.15625 C 18.976562 1.15625 13.457031 -0.8125 9.84375 -4.75 C 6.226562 -8.6875 4.289062 -14.941406 4.03125 -23.515625 L 18.71875 -25.734375 C 18.78125 -20.804688 19.367188 -17.269531 20.484375 -15.125 C 21.609375 -12.976562 23.289062 -11.90625 25.53125 -11.90625 C 28.414062 -11.90625 29.859375 -13.789062 29.859375 -17.5625 C 29.859375 -20.570312 29.171875 -23.164062 27.796875 -25.34375 C 26.421875 -27.519531 24.257812 -29.859375 21.3125 -32.359375 L 14.59375 -38.203125 C 11.257812 -41.023438 8.679688 -44.019531 6.859375 -47.1875 C 5.035156 -50.351562 4.125 -54.113281 4.125 -58.46875 C 4.125 -64.988281 6.0625 -70.007812 9.9375 -73.53125 C 13.8125 -77.050781 19.140625 -78.8125 25.921875 -78.8125 C 33.273438 -78.8125 38.28125 -76.664062 40.9375 -72.375 C 43.59375 -68.09375 45.019531 -62.878906 45.21875 -56.734375 L 30.4375 -54.90625 C 30.300781 -58.9375 29.929688 -61.832031 29.328125 -63.59375 C 28.722656 -65.351562 27.394531 -66.234375 25.34375 -66.234375 C 23.875 -66.234375 22.738281 -65.609375 21.9375 -64.359375 C 21.132812 -63.117188 20.734375 -61.726562 20.734375 -60.1875 C 20.734375 -57.5625 21.320312 -55.351562 22.5 -53.5625 C 23.6875 -51.769531 25.59375 -49.722656 28.21875 -47.421875 L 34.65625 -41.765625 C 38.5 -38.492188 41.472656 -35.035156 43.578125 -31.390625 C 45.691406 -27.742188 46.75 -23.425781 46.75 -18.4375 C 46.75 -14.78125 45.898438 -11.460938 44.203125 -8.484375 C 42.503906 -5.515625 40.117188 -3.164062 37.046875 -1.4375 C 33.984375 0.289062 30.4375 1.15625 26.40625 1.15625 Z M 26.40625 1.15625 "/></g></g></g></g></g></g><g fill="#000000" fill-opacity="1"><g transform="translate(4.455233, 99.376765)"><g><path d="M 33.011719 -43.878906 C 29.777344 -43.164062 26.394531 -41.996094 22.859375 -40.382812 C 19.324219 -38.765625 16.28125 -37.109375 13.761719 -35.34375 C 11.203125 -33.574219 9.777344 -32.070312 9.476562 -30.832031 C 9.398438 -30.417969 9.511719 -30.042969 9.8125 -29.703125 C 10.078125 -29.363281 10.753906 -29.175781 11.84375 -29.175781 C 12.183594 -29.175781 12.445312 -29.289062 12.632812 -29.550781 C 12.820312 -29.816406 12.894531 -30.042969 12.859375 -30.304688 C 12.820312 -30.566406 12.59375 -30.679688 12.257812 -30.679688 C 11.769531 -30.679688 11.46875 -30.71875 11.28125 -30.792969 C 11.089844 -30.867188 11.015625 -30.945312 11.015625 -30.980469 C 11.054688 -31.359375 11.691406 -32.035156 12.933594 -33.050781 C 14.136719 -34.066406 15.980469 -35.230469 18.421875 -36.621094 C 23.574219 -39.441406 28.425781 -41.359375 32.9375 -42.375 C 37.261719 -43.238281 40.34375 -43.125 42.1875 -42.035156 C 43.992188 -40.945312 44.703125 -39.140625 44.367188 -36.660156 C 44.027344 -34.175781 42.75 -31.320312 40.570312 -28.085938 C 38.386719 -24.816406 35.457031 -21.507812 31.808594 -18.085938 C 27.558594 -14.25 23.234375 -11.167969 18.914062 -8.796875 C 14.550781 -6.429688 10.789062 -4.738281 7.59375 -3.722656 C 4.398438 -2.707031 2.480469 -2.292969 1.765625 -2.519531 C 1.730469 -2.78125 1.617188 -2.933594 1.390625 -3.007812 C 1.164062 -3.046875 0.941406 -3.007812 0.714844 -2.894531 C 0.453125 -2.78125 0.300781 -2.558594 0.226562 -2.257812 C 0.0742188 -1.691406 0.261719 -1.316406 0.789062 -1.089844 C 1.878906 -0.753906 4.171875 -1.128906 7.671875 -2.257812 C 11.167969 -3.382812 15.152344 -5.226562 19.703125 -7.746094 C 24.25 -10.265625 28.574219 -13.386719 32.710938 -17.109375 C 38.386719 -22.484375 42.296875 -27.410156 44.367188 -31.921875 C 46.433594 -36.394531 46.546875 -39.816406 44.742188 -42.148438 C 42.898438 -44.480469 38.988281 -45.042969 33.011719 -43.878906 Z M 24.890625 -36.246094 C 24.964844 -36.582031 24.890625 -36.808594 24.703125 -36.921875 C 24.476562 -37.035156 24.214844 -37.035156 23.949219 -36.921875 C 23.6875 -36.808594 23.5 -36.582031 23.386719 -36.246094 C 21.921875 -30.867188 20.753906 -26.582031 19.851562 -23.386719 C 19.664062 -22.671875 19.4375 -21.996094 19.25 -21.355469 C 18.234375 -17.972656 17.671875 -15.566406 17.484375 -14.175781 C 17.296875 -12.746094 17.820312 -12.03125 19.0625 -12.03125 C 19.402344 -12.03125 19.664062 -12.183594 19.851562 -12.445312 C 20.039062 -12.707031 20.078125 -12.933594 20.039062 -13.195312 C 20.003906 -13.460938 19.816406 -13.574219 19.476562 -13.574219 C 19.363281 -13.574219 19.25 -13.574219 19.175781 -13.609375 C 19.101562 -13.648438 19.0625 -13.722656 19.0625 -13.910156 C 19.023438 -14.097656 19.0625 -14.363281 19.136719 -14.777344 C 19.175781 -15.191406 19.289062 -15.753906 19.476562 -16.46875 C 19.664062 -17.183594 19.890625 -18.085938 20.226562 -19.214844 C 20.527344 -20.339844 20.90625 -21.730469 21.355469 -23.347656 C 22.257812 -26.582031 23.425781 -30.867188 24.890625 -36.246094 Z M 24.890625 -36.246094 "/></g></g></g><g fill="#000000" fill-opacity="1"><g transform="translate(43.139294, 99.376765)"><g><path d="M 4.210938 -17.070312 C 3.835938 -17.21875 3.609375 -17.410156 3.496094 -17.671875 C 3.382812 -17.933594 3.347656 -18.160156 3.460938 -18.386719 C 3.570312 -18.648438 3.722656 -18.800781 3.910156 -18.800781 C 4.097656 -18.800781 4.210938 -18.648438 4.324219 -18.386719 C 4.398438 -18.085938 4.363281 -17.632812 4.210938 -17.070312 Z M 11.691406 -18.648438 C 9.738281 -17.296875 7.707031 -16.695312 5.640625 -16.808594 C 6.054688 -18.199219 6.054688 -19.136719 5.566406 -19.703125 C 5.074219 -20.265625 4.4375 -20.417969 3.683594 -20.226562 C 2.933594 -20.039062 2.367188 -19.476562 1.992188 -18.535156 C 1.765625 -17.972656 1.765625 -17.410156 1.957031 -16.882812 C 2.144531 -16.316406 2.632812 -15.90625 3.382812 -15.640625 C 3.046875 -15.304688 2.632812 -15.113281 2.179688 -15.113281 C 1.464844 -15.113281 1.128906 -15.453125 1.089844 -16.09375 C 1.054688 -16.730469 1.203125 -17.445312 1.542969 -18.160156 C 1.65625 -18.5 1.65625 -18.761719 1.464844 -18.914062 C 1.277344 -19.0625 1.054688 -19.101562 0.789062 -19.0625 C 0.527344 -18.988281 0.300781 -18.800781 0.113281 -18.460938 C -0.527344 -16.917969 -0.675781 -15.714844 -0.261719 -14.851562 C 0.152344 -13.988281 0.828125 -13.574219 1.765625 -13.574219 C 2.894531 -13.574219 3.949219 -14.175781 4.886719 -15.339844 C 6.015625 -15.226562 7.257812 -15.339844 8.648438 -15.679688 C 10 -16.015625 11.28125 -16.65625 12.484375 -17.558594 C 12.746094 -17.820312 12.894531 -18.046875 12.859375 -18.3125 C 12.820312 -18.574219 12.707031 -18.722656 12.484375 -18.835938 C 12.257812 -18.949219 11.992188 -18.875 11.691406 -18.648438 Z M 11.691406 -18.648438 "/></g></g></g><g fill="#000000" fill-opacity="1"><g transform="translate(54.830978, 99.376765)"><g><path d="M 16.617188 -18.722656 C 16.355469 -18.535156 16.09375 -18.3125 15.828125 -18.121094 C 14.964844 -17.445312 14.0625 -16.808594 13.085938 -16.167969 C 12.070312 -15.527344 11.203125 -15.191406 10.414062 -15.191406 C 9.925781 -15.191406 9.625 -15.339844 9.476562 -15.605469 C 9.285156 -15.867188 9.210938 -16.394531 9.210938 -17.109375 C 9.25 -17.519531 9.210938 -17.933594 9.175781 -18.386719 C 9.097656 -18.800781 8.910156 -19.175781 8.648438 -19.476562 C 8.382812 -19.777344 7.894531 -19.925781 7.257812 -19.925781 C 6.316406 -19.925781 5.265625 -19.550781 4.171875 -18.800781 C 3.082031 -18.011719 1.957031 -17.109375 0.828125 -16.015625 C 1.015625 -16.730469 1.203125 -17.445312 1.390625 -18.121094 C 1.503906 -18.535156 1.617188 -18.875 1.691406 -19.175781 C 1.765625 -19.515625 1.691406 -19.738281 1.503906 -19.851562 C 1.277344 -19.964844 1.015625 -19.964844 0.753906 -19.851562 C 0.488281 -19.738281 0.300781 -19.515625 0.1875 -19.175781 C 0.0742188 -18.835938 -0.0390625 -18.460938 -0.152344 -18.046875 C -0.339844 -17.371094 -0.488281 -16.695312 -0.675781 -16.015625 C -0.863281 -15.339844 -0.941406 -14.8125 -0.976562 -14.398438 C -1.015625 -13.910156 -0.863281 -13.648438 -0.527344 -13.535156 C -0.226562 -13.421875 0.1875 -13.574219 0.675781 -14.023438 C 1.804688 -15.113281 2.933594 -16.128906 4.0625 -17.070312 C 5.152344 -17.972656 6.089844 -18.421875 6.84375 -18.421875 C 7.179688 -18.421875 7.40625 -18.3125 7.519531 -18.085938 C 7.632812 -17.820312 7.671875 -17.371094 7.671875 -16.695312 C 7.632812 -16.28125 7.671875 -15.828125 7.746094 -15.378906 C 7.820312 -14.890625 8.007812 -14.511719 8.347656 -14.175781 C 8.683594 -13.835938 9.210938 -13.6875 10 -13.6875 C 11.054688 -13.6875 12.144531 -14.0625 13.308594 -14.777344 C 14.476562 -15.492188 15.566406 -16.242188 16.582031 -17.03125 C 16.84375 -17.21875 17.070312 -17.410156 17.332031 -17.597656 C 17.632812 -17.859375 17.785156 -18.085938 17.785156 -18.347656 C 17.746094 -18.613281 17.632812 -18.761719 17.410156 -18.875 C 17.183594 -18.988281 16.917969 -18.914062 16.617188 -18.722656 Z M 16.617188 -18.722656 "/></g></g></g><g fill="#000000" fill-opacity="1"><g transform="translate(71.334674, 99.376765)"><g><path d="M 3.496094 -18.5 C 3.160156 -18.3125 2.59375 -18.199219 1.804688 -18.160156 C 2.367188 -18.5 2.933594 -18.613281 3.496094 -18.5 Z M 11.054688 -18.6875 C 7.632812 -16.167969 4.699219 -15 2.257812 -15.191406 C 1.691406 -15.226562 1.316406 -15.339844 1.054688 -15.527344 C 0.789062 -15.714844 0.640625 -15.90625 0.601562 -16.128906 C 0.527344 -16.316406 0.527344 -16.542969 0.5625 -16.730469 C 2.03125 -16.542969 3.195312 -16.730469 4.097656 -17.257812 C 4.964844 -17.785156 5.339844 -18.386719 5.226562 -19.101562 C 5.039062 -19.738281 4.511719 -20.078125 3.648438 -20.078125 C 2.78125 -20.039062 1.878906 -19.777344 0.976562 -19.214844 C 0.0390625 -18.648438 -0.5625 -17.820312 -0.902344 -16.808594 C -1.164062 -15.867188 -1.089844 -15.113281 -0.601562 -14.550781 C -0.113281 -13.988281 0.789062 -13.6875 2.105469 -13.6875 C 5.074219 -13.6875 8.273438 -14.964844 11.730469 -17.558594 C 12.03125 -17.785156 12.183594 -18.046875 12.183594 -18.3125 C 12.144531 -18.574219 12.03125 -18.761719 11.84375 -18.875 C 11.617188 -18.988281 11.355469 -18.914062 11.054688 -18.6875 Z M 11.054688 -18.6875 "/></g></g></g><g fill="#000000" fill-opacity="1"><g transform="translate(82.349668, 99.376765)"><g/></g></g><g fill="#000000" fill-opacity="1"><g transform="translate(101.672902, 99.376765)"><g><path d="M 39.78125 -30.867188 C 37.222656 -31.28125 34.066406 -31.207031 30.304688 -30.644531 C 33.652344 -32.710938 36.058594 -34.96875 37.449219 -37.335938 C 38.839844 -39.703125 38.914062 -41.585938 37.75 -42.976562 C 36.546875 -44.367188 33.765625 -44.628906 29.363281 -43.839844 C 24.515625 -42.710938 19.890625 -40.792969 15.566406 -38.085938 C 11.242188 -35.34375 8.796875 -33.050781 8.234375 -31.132812 C 8.195312 -30.980469 8.195312 -30.792969 8.273438 -30.53125 C 8.308594 -30.265625 8.496094 -30.042969 8.761719 -29.851562 C 9.023438 -29.664062 9.476562 -29.550781 10.113281 -29.550781 C 10.453125 -29.550781 10.714844 -29.664062 10.902344 -29.929688 C 11.089844 -30.191406 11.128906 -30.417969 11.089844 -30.679688 C 11.054688 -30.945312 10.867188 -31.058594 10.527344 -31.058594 C 10.488281 -31.058594 10.378906 -31.058594 10.265625 -31.09375 C 10.152344 -31.09375 10.039062 -31.132812 9.925781 -31.167969 C 9.8125 -31.207031 9.777344 -31.246094 9.777344 -31.320312 C 9.964844 -32.035156 10.980469 -33.164062 12.894531 -34.628906 C 14.8125 -36.09375 17.21875 -37.597656 20.117188 -39.066406 C 23.011719 -40.53125 26.09375 -41.660156 29.289062 -42.375 C 32.785156 -43.011719 35.078125 -42.898438 36.132812 -41.996094 C 37.183594 -41.09375 37.261719 -39.816406 36.359375 -38.125 C 35.457031 -36.433594 33.800781 -34.742188 31.394531 -33.050781 C 28.988281 -31.359375 26.09375 -30.042969 22.710938 -29.140625 C 23.3125 -31.28125 23.949219 -33.652344 24.664062 -36.246094 C 24.703125 -36.582031 24.628906 -36.808594 24.4375 -36.921875 C 24.214844 -37.035156 23.988281 -37.035156 23.726562 -36.921875 C 23.460938 -36.808594 23.234375 -36.582031 23.125 -36.246094 C 21.695312 -30.945312 20.453125 -26.46875 19.4375 -22.898438 C 19.214844 -22.03125 18.988281 -21.242188 18.761719 -20.453125 C 17.972656 -17.671875 17.332031 -15.339844 16.882812 -13.421875 C 16.394531 -11.503906 16.207031 -10.078125 16.28125 -9.136719 C 16.355469 -8.160156 16.808594 -7.671875 17.632812 -7.671875 C 17.972656 -7.671875 18.199219 -7.78125 18.386719 -8.046875 C 18.574219 -8.308594 18.648438 -8.535156 18.613281 -8.796875 C 18.574219 -9.0625 18.347656 -9.175781 18.011719 -9.175781 C 17.671875 -9.175781 17.671875 -9.964844 18.011719 -11.582031 C 18.347656 -13.195312 18.761719 -14.964844 19.289062 -16.917969 C 19.816406 -18.875 20.265625 -20.492188 20.679688 -21.808594 C 20.792969 -22.257812 20.90625 -22.632812 20.980469 -22.898438 C 21.394531 -24.289062 21.808594 -25.867188 22.296875 -27.558594 L 22.332031 -27.558594 C 22.597656 -27.597656 23.011719 -27.710938 23.5 -27.824219 C 25.152344 -28.273438 27.445312 -28.726562 30.417969 -29.214844 C 33.351562 -29.664062 36.28125 -29.703125 39.179688 -29.363281 C 42.410156 -28.761719 44.402344 -27.410156 45.195312 -25.265625 C 45.945312 -23.125 45.195312 -20.640625 42.976562 -17.820312 C 40.757812 -15 36.734375 -12.257812 30.980469 -9.625 C 24.328125 -6.84375 18.085938 -4.886719 12.183594 -3.722656 C 6.277344 -2.558594 2.746094 -2.257812 1.617188 -2.894531 C 1.65625 -3.195312 1.542969 -3.382812 1.316406 -3.496094 C 1.089844 -3.570312 0.863281 -3.535156 0.601562 -3.421875 C 0.339844 -3.308594 0.1875 -3.082031 0.0742188 -2.746094 C 0.0390625 -2.632812 0.0390625 -2.445312 0.0742188 -2.21875 C 0.113281 -1.992188 0.226562 -1.804688 0.453125 -1.617188 C 2.066406 -0.753906 5.976562 -0.941406 12.21875 -2.21875 C 18.421875 -3.496094 24.816406 -5.527344 31.320312 -8.273438 C 37.636719 -11.167969 41.996094 -14.210938 44.441406 -17.484375 C 46.847656 -20.71875 47.601562 -23.574219 46.699219 -26.09375 C 45.757812 -28.613281 43.464844 -30.191406 39.78125 -30.867188 Z M 39.78125 -30.867188 "/></g></g></g><g fill="#000000" fill-opacity="1"><g transform="translate(149.717829, 99.376765)"><g><path d="M -0.414062 6.65625 C -0.976562 7.070312 -1.355469 7.070312 -1.542969 6.65625 C -1.765625 6.242188 -1.84375 5.675781 -1.730469 4.964844 C -1.542969 3.269531 -0.753906 1.015625 0.675781 -1.804688 C 2.105469 -4.585938 4.023438 -7.371094 6.46875 -10.113281 C 5.527344 -6.617188 4.4375 -3.234375 3.234375 0.0390625 C 1.992188 3.308594 0.789062 5.527344 -0.414062 6.65625 Z M 17.484375 -19.023438 C 14.476562 -18.160156 11.691406 -16.65625 9.175781 -14.589844 C 9.4375 -15.679688 9.699219 -16.617188 9.886719 -17.332031 C 10.078125 -18.046875 10.1875 -18.648438 10.300781 -19.0625 C 10.414062 -19.550781 10.300781 -19.816406 9.964844 -19.925781 C 9.625 -20.003906 9.285156 -19.890625 8.949219 -19.550781 C 7.746094 -18.3125 6.691406 -17.410156 5.789062 -16.808594 C 4.886719 -16.167969 4.136719 -15.753906 3.496094 -15.566406 C 2.859375 -15.378906 2.367188 -15.265625 1.992188 -15.265625 C 1.503906 -15.265625 1.203125 -15.492188 1.128906 -15.941406 C 1.015625 -16.355469 1.054688 -16.882812 1.203125 -17.484375 C 1.355469 -18.046875 1.542969 -18.613281 1.765625 -19.101562 C 1.878906 -19.4375 1.878906 -19.703125 1.691406 -19.851562 C 1.503906 -20.003906 1.242188 -20.039062 0.976562 -19.964844 C 0.714844 -19.890625 0.488281 -19.703125 0.339844 -19.363281 C -0.0742188 -18.421875 -0.339844 -17.558594 -0.453125 -16.695312 C -0.5625 -15.828125 -0.488281 -15.152344 -0.1875 -14.589844 C 0.113281 -14.023438 0.714844 -13.722656 1.617188 -13.722656 C 2.332031 -13.722656 3.234375 -13.949219 4.363281 -14.398438 C 5.453125 -14.851562 6.769531 -15.714844 8.273438 -17.03125 C 8.234375 -16.84375 8.195312 -16.695312 8.160156 -16.507812 L 7.179688 -12.785156 C 4.136719 -9.777344 1.730469 -6.578125 -0.113281 -3.234375 C -1.957031 0.113281 -3.046875 2.933594 -3.308594 5.226562 C -3.421875 6.957031 -3.082031 7.972656 -2.257812 8.308594 C -1.429688 8.648438 -0.5625 8.421875 0.375 7.707031 C 1.84375 6.429688 3.269531 3.984375 4.664062 0.339844 C 6.015625 -3.269531 7.332031 -7.480469 8.574219 -12.257812 C 11.242188 -14.777344 14.25 -16.582031 17.597656 -17.597656 C 17.933594 -17.710938 18.160156 -17.933594 18.273438 -18.199219 C 18.386719 -18.460938 18.347656 -18.6875 18.234375 -18.875 C 18.085938 -19.0625 17.820312 -19.136719 17.484375 -19.023438 Z M 17.484375 -19.023438 "/></g></g></g><g fill="#000000" fill-opacity="1"><g transform="translate(166.935807, 99.376765)"><g/></g></g><g fill="#000000" fill-opacity="1"><g transform="translate(186.259041, 99.376765)"><g><path d="M 26.09375 -1.84375 C 25.867188 -3.609375 24.589844 -5.566406 22.257812 -7.632812 C 19.890625 -9.699219 17.257812 -11.65625 14.324219 -13.496094 C 11.390625 -15.339844 8.949219 -16.769531 6.992188 -17.785156 C 12.59375 -21.695312 17.972656 -25.867188 23.046875 -30.265625 C 28.125 -34.667969 31.769531 -38.164062 34.027344 -40.71875 C 34.253906 -41.019531 34.328125 -41.285156 34.253906 -41.507812 C 34.140625 -41.734375 33.988281 -41.847656 33.726562 -41.886719 C 33.464844 -41.921875 33.199219 -41.773438 32.9375 -41.507812 C 30.757812 -39.027344 27.183594 -35.644531 22.257812 -31.359375 C 17.332031 -27.070312 12.105469 -23.011719 6.617188 -19.136719 C 9.210938 -28.199219 10.867188 -34.667969 11.617188 -38.539062 C 12.371094 -42.410156 12.183594 -44.328125 11.089844 -44.328125 C 10 -44.328125 8.722656 -43.691406 7.179688 -42.410156 C 5.640625 -41.09375 4.210938 -39.628906 2.96875 -38.011719 C 1.730469 -36.394531 0.941406 -35.003906 0.601562 -33.875 C 0.414062 -33.199219 0.453125 -32.710938 0.714844 -32.371094 C 0.941406 -32.035156 1.316406 -31.847656 1.84375 -31.847656 C 2.179688 -31.847656 2.40625 -31.960938 2.59375 -32.222656 C 2.78125 -32.484375 2.859375 -32.710938 2.820312 -32.972656 C 2.78125 -33.238281 2.59375 -33.351562 2.257812 -33.351562 C 2.144531 -33.351562 2.105469 -33.386719 2.066406 -33.464844 C 2.03125 -33.5 2.03125 -33.652344 2.105469 -33.875 C 2.367188 -34.816406 3.046875 -35.945312 4.097656 -37.296875 C 5.113281 -38.613281 6.242188 -39.855469 7.480469 -40.945312 C 8.683594 -42.035156 9.699219 -42.636719 10.527344 -42.824219 C 10.714844 -41.886719 10.414062 -39.703125 9.625 -36.28125 C 8.835938 -32.824219 7.78125 -28.800781 6.542969 -24.25 C 5.265625 -19.703125 4.023438 -15.304688 2.820312 -11.128906 C 1.65625 -7.105469 0.714844 -3.910156 0.0742188 -1.542969 C 0.0390625 -1.203125 0.113281 -0.976562 0.339844 -0.863281 C 0.527344 -0.753906 0.789062 -0.753906 1.054688 -0.863281 C 1.316406 -0.976562 1.503906 -1.203125 1.617188 -1.542969 C 2.40625 -4.398438 3.382812 -7.972656 4.625 -12.21875 C 5.039062 -13.609375 5.453125 -15 5.867188 -16.46875 C 8.984375 -14.777344 11.957031 -12.972656 14.777344 -11.128906 C 17.597656 -9.25 19.890625 -7.480469 21.65625 -5.789062 C 23.425781 -4.097656 24.402344 -2.632812 24.515625 -1.390625 C 24.550781 -1.089844 24.703125 -0.941406 24.964844 -0.902344 C 25.230469 -0.863281 25.453125 -0.902344 25.71875 -1.089844 C 25.941406 -1.277344 26.054688 -1.503906 26.09375 -1.84375 Z M 26.09375 -1.84375 "/></g></g></g><g fill="#000000" fill-opacity="1"><g transform="translate(218.288992, 99.376765)"><g><path d="M -0.414062 6.65625 C -0.976562 7.070312 -1.355469 7.070312 -1.542969 6.65625 C -1.765625 6.242188 -1.84375 5.675781 -1.730469 4.964844 C -1.542969 3.269531 -0.753906 1.015625 0.675781 -1.804688 C 2.105469 -4.585938 4.023438 -7.371094 6.46875 -10.113281 C 5.527344 -6.617188 4.4375 -3.234375 3.234375 0.0390625 C 1.992188 3.308594 0.789062 5.527344 -0.414062 6.65625 Z M 17.484375 -19.023438 C 14.476562 -18.160156 11.691406 -16.65625 9.175781 -14.589844 C 9.4375 -15.679688 9.699219 -16.617188 9.886719 -17.332031 C 10.078125 -18.046875 10.1875 -18.648438 10.300781 -19.0625 C 10.414062 -19.550781 10.300781 -19.816406 9.964844 -19.925781 C 9.625 -20.003906 9.285156 -19.890625 8.949219 -19.550781 C 7.746094 -18.3125 6.691406 -17.410156 5.789062 -16.808594 C 4.886719 -16.167969 4.136719 -15.753906 3.496094 -15.566406 C 2.859375 -15.378906 2.367188 -15.265625 1.992188 -15.265625 C 1.503906 -15.265625 1.203125 -15.492188 1.128906 -15.941406 C 1.015625 -16.355469 1.054688 -16.882812 1.203125 -17.484375 C 1.355469 -18.046875 1.542969 -18.613281 1.765625 -19.101562 C 1.878906 -19.4375 1.878906 -19.703125 1.691406 -19.851562 C 1.503906 -20.003906 1.242188 -20.039062 0.976562 -19.964844 C 0.714844 -19.890625 0.488281 -19.703125 0.339844 -19.363281 C -0.0742188 -18.421875 -0.339844 -17.558594 -0.453125 -16.695312 C -0.5625 -15.828125 -0.488281 -15.152344 -0.1875 -14.589844 C 0.113281 -14.023438 0.714844 -13.722656 1.617188 -13.722656 C 2.332031 -13.722656 3.234375 -13.949219 4.363281 -14.398438 C 5.453125 -14.851562 6.769531 -15.714844 8.273438 -17.03125 C 8.234375 -16.84375 8.195312 -16.695312 8.160156 -16.507812 L 7.179688 -12.785156 C 4.136719 -9.777344 1.730469 -6.578125 -0.113281 -3.234375 C -1.957031 0.113281 -3.046875 2.933594 -3.308594 5.226562 C -3.421875 6.957031 -3.082031 7.972656 -2.257812 8.308594 C -1.429688 8.648438 -0.5625 8.421875 0.375 7.707031 C 1.84375 6.429688 3.269531 3.984375 4.664062 0.339844 C 6.015625 -3.269531 7.332031 -7.480469 8.574219 -12.257812 C 11.242188 -14.777344 14.25 -16.582031 17.597656 -17.597656 C 17.933594 -17.710938 18.160156 -17.933594 18.273438 -18.199219 C 18.386719 -18.460938 18.347656 -18.6875 18.234375 -18.875 C 18.085938 -19.0625 17.820312 -19.136719 17.484375 -19.023438 Z M 17.484375 -19.023438 "/></g></g></g></svg>